<svg id="Layer_2" data-name="Layer 2" xmlns="http://www.w3.org/2000/svg" viewBox="0 0 373.81 283.22"><defs><style>.cls-1,.cls-25{fill:#a4ce3a;}.cls-2{fill:#cca675;}.cls-3{fill:#848484;opacity:0.21;}.cls-14,.cls-24,.cls-4,.cls-5,.cls-9{fill:#606060;}.cls-4{opacity:0.11;}.cls-5{opacity:0.28;}.cls-13,.cls-22,.cls-6{fill:#262626;}.cls-6{opacity:0.5;}.cls-7{fill:#d9ba84;}.cls-8{fill:#01ac4e;}.cls-9{opacity:0.22;}.cls-10{opacity:0.47;}.cls-11{fill:#242021;}.cls-12{fill:#141414;}.cls-12,.cls-14{opacity:0.42;}.cls-13{opacity:0.36;}.cls-15,.cls-16,.cls-20{fill:#fff;}.cls-16{opacity:0.1;}.cls-17,.cls-18,.cls-19{fill:#404040;}.cls-17{opacity:0.53;}.cls-18{opacity:0.56;}.cls-19{opacity:0.15;}.cls-20,.cls-22{opacity:0.39;}.cls-21,.cls-29{fill:#393834;}.cls-21{opacity:0.29;}.cls-23{fill:#ffc931;}.cls-24{opacity:0.75;}.cls-25{font-size:30px;font-family:Montserrat-BlackItalic, Montserrat;font-weight:800;font-style:italic;letter-spacing:0.14em;}.cls-26{letter-spacing:0.15em;}.cls-27{letter-spacing:0.15em;}.cls-28{letter-spacing:0.15em;}.cls-29{opacity:0.05;}</style></defs><title>logo</title><polygon class="cls-1" points="0 17.27 80.37 283.22 326.47 238.63 303.46 83.94 0 17.27"/><path class="cls-2" d="M287.67,298.57a19.38,19.38,0,0,0,2.29,4.49,50,50,0,0,1-6.66.46c-19.5.1-43-9.8-60.6-19.06l-.52-.27c-4.38-2.31-8.39-4.58-11.88-6.63-8.24-4.84-13.57-8.5-14-8.77h0l.69-1c1-1.5,2.44-3.62,4.09-6.16,5.5-8.47,13.48-21.54,17.1-31.32a24.47,24.47,0,0,0,1.91-8.66c-.16-4.83,9.64,0,22,7.81,2.27,1.44,4.62,3,7,4.62h0c8.51,5.74,17.5,12.28,24.87,17.79,9.27,6.92,16,12.2,16,12.2S282.77,285,287.67,298.57Z" transform="translate(-58.31 -100.86)"/><path class="cls-3" d="M255.2,257.56,277.85,250l1-.34s3,1,7,2.78h0c7.81,3.44,11,2.16,6.74,8.2-7.67,10.89-14.51,44.12-18,47.16-3-5.7-16.64-18-17.34-19.6-2-4.69-2.16-29.67-2.08-30.65" transform="translate(-58.31 -100.86)"/><path class="cls-4" d="M282.21,268.16l-7.37,40.09s10.77-24,10.72-27S282.21,268.16,282.21,268.16Z" transform="translate(-58.31 -100.86)"/><path class="cls-5" d="M272.46,267.52l2.08,28s2.13-22.14,3.23-26.09S272.46,267.52,272.46,267.52Z" transform="translate(-58.31 -100.86)"/><path class="cls-3" d="M253.25,243.84c3.2,17.76-34.06,61.15-38.29,63.08-1.26-6.32,8.78-48.5,8.56-50.23-.63-5.07,1.87-23.83,2.22-24.74L204,262.87l-7,4.9c1-1.5,2.44-3.62,4.09-6.16,5.5-8.47,13.48-21.54,17.1-31.32l23.87-.85,1.07,0s2.6,1.82,5.94,4.66h0C255.61,239.58,251.94,236.58,253.25,243.84Z" transform="translate(-58.31 -100.86)"/><path class="cls-6" d="M288.83,305.68,238.42,238.1,274,251.86c9.27,6.92,16,12.2,16,12.2s-9,26.14,0,39C291.05,304.62,290.55,305.44,288.83,305.68Z" transform="translate(-58.31 -100.86)"/><path class="cls-7" d="M347,196.78c-2.57,3-11.57,17.14-13.28,22.71s-6,19.71-15.86,33.86a39.57,39.57,0,0,1-7.24,7.77h0A59.76,59.76,0,0,1,293,271l-.38.13c-1.39.49-2.43.8-3,1l-.47.13a12.72,12.72,0,0,1-4.14-.66,43.69,43.69,0,0,1-8.29-3.75c-10.92-6.11-24.79-17.37-33.43-26-3.66-3.66-8.24-11-12.64-19.08C222.48,207.86,215,190.78,215,190.78l4.86-12.43,53-41.57s78,19.28,81.43,28.28S349.53,193.78,347,196.78Z" transform="translate(-58.31 -100.86)"/><path class="cls-8" d="M234.68,180.92c0,1.71,2.57,41.57,5.57,45.86S227.4,207.92,224,196.35s-17.57-29.15-9-36.43S234.68,180.92,234.68,180.92Z" transform="translate(-58.31 -100.86)"/><polygon class="cls-9" points="258.71 110.17 266.02 132.27 268.37 129.68 263.21 108.04 258.71 110.17"/><path class="cls-10" d="M241.37,194.28s-2.3,33,0,35.52-12.22-7.4-18.94-38S241.37,194.28,241.37,194.28Z" transform="translate(-58.31 -100.86)"/><polygon class="cls-9" points="228.75 105.55 255.24 119.08 251.87 105.55 228.75 105.55"/><path class="cls-11" d="M221.69,190.52,320,215.06l16.59-1.88s17.23-18.09,16.39-30.32-22.27-62.8-56.55-55.51S221.69,190.52,221.69,190.52Z" transform="translate(-58.31 -100.86)"/><path class="cls-8" d="M219.82,192.06s36.68-16,59-16.28c30-.43,43.29-4.93,58,4.6,16.85,10.92,11.43,17.68,11.43,17.68l3.43-6.86a18.5,18.5,0,0,0,1.3-4.71c0-2.12.6-3,3.18-18.43s3.66-39.86-10.91-49.28-31.71-23.15-82.5-15.86c-28.07,15.43-34.07,21.43-34.07,21.43s-.86,6-.43,7.28c-3,3.86-17.28,10.07-16,23.79s-3.71,26.36-1.57,28.5S219.82,192.06,219.82,192.06Z" transform="translate(-58.31 -100.86)"/><path class="cls-8" d="M219.82,232c-2.76-1.84-13.86,2.11-22.43,8.54s-13.6,3.49-24.5.11l-.36-.11c4.29,0,12.43-7.71,14.58-13.19s10.28-12.24,10.28-12.24l7.29-7.57s3.3,4.86,6.85,10.25C216.25,224.9,221.39,233,219.82,232Z" transform="translate(-58.31 -100.86)"/><path class="cls-12" d="M211.53,217.74c-6.2,3.58-16.59,16.28-21.85,20-3.26,2.27-10.47,2.87-16.79,2.9l-.36-.11c4.29,0,12.43-7.71,14.58-13.19s10.28-12.24,10.28-12.24l7.29-7.57S208,212.35,211.53,217.74Z" transform="translate(-58.31 -100.86)"/><path class="cls-8" d="M216.47,197s2.77,11.57-2.72,14.46a6.87,6.87,0,0,1-4.42.54c-11.15-1.71-14.15-3-25.72-11.14s-12.43-8.91-18-10l.06-.35c1.41-6.19,17.71-5,28.23-2.51a20.11,20.11,0,0,0,17.67-3.85c4.38-6,12.47,1.42,12.47,1.42Z" transform="translate(-58.31 -100.86)"/><path class="cls-13" d="M210.26,179.9s-2.95,6.49,11,11.55c-2.11-4.42-11.36-8.92-11-11.55" transform="translate(-58.31 -100.86)"/><path class="cls-14" d="M297.68,312.49l-66.27,5.57L182,294.92l-8.32-20.31c9.39-3.56,22.68-5.83,22.68-5.83,1-1.46,7.63,3.43,24.94,11.46,0,0,19.85,13,66.41,18.33a19.38,19.38,0,0,0,2.29,4.49,50,50,0,0,1-6.66.46,24.49,24.49,0,0,0,6,.27,2.9,2.9,0,0,0,1.28-.43,26.35,26.35,0,0,1,4.75,3C296.75,309.57,297.68,312.49,297.68,312.49Z" transform="translate(-58.31 -100.86)"/><path class="cls-10" d="M213.75,211.5a6.87,6.87,0,0,1-4.42.54c-11.15-1.71-14.15-3-25.72-11.14s-12.43-8.91-18-10l.06-.35a79.73,79.73,0,0,1,27,6.46c6.43,2.8,17.32,1.05,17.32,1.05Z" transform="translate(-58.31 -100.86)"/><path class="cls-7" d="M225.25,235.35a50.67,50.67,0,0,1-5.5-3.44c-22.35-16.18-8.07-38.25-6.07-39.85s5.89-3.1,8.5.1a7.41,7.41,0,0,1,.59.85l.85,2,17.49,40.38S239.24,246.15,225.25,235.35Z" transform="translate(-58.31 -100.86)"/><path class="cls-15" d="M322.11,238.2a28.38,28.38,0,0,1-.58,3.57,14.35,14.35,0,0,1-2.64,6c-2.6,3-4,5.62-8,7.21a21.15,21.15,0,0,1-5.47,1.27c-4.43.51-10.81.37-20.44-.69-16.83-1.85-27.79-10.11-30.87-20.27,0,0,0,0,0,0-1.68-5.54-1-11.64,2.31-17.57a30.5,30.5,0,0,1,3.08-4.53s51,25,54,25Z" transform="translate(-58.31 -100.86)"/><path class="cls-4" d="M241.11,248.1l-23.37,46.17s22.09-29.77,22.89-32.67S241.11,248.1,241.11,248.1Z" transform="translate(-58.31 -100.86)"/><path class="cls-4" d="M254.5,250.72l-12.67,46.17s12-29.77,12.4-32.66S254.5,250.72,254.5,250.72Z" transform="translate(-58.31 -100.86)"/><path class="cls-4" d="M217.47,261.85l7-27.51s-8.62,16.17-8.72,18.25S217.47,261.85,217.47,261.85Z" transform="translate(-58.31 -100.86)"/><path class="cls-4" d="M206.8,257.29l11.28-26S207,245.84,206.57,247.88,206.8,257.29,206.8,257.29Z" transform="translate(-58.31 -100.86)"/><path class="cls-16" d="M302.56,231s8.63,3.75,9.33,4.6c1,1.18-1.93-.17-5.14-1.66S300.61,231.09,302.56,231Z" transform="translate(-58.31 -100.86)"/><polygon class="cls-11" points="261.65 114.19 267.23 130.41 259.08 134 264.87 132.77 268.56 134 271.08 109.2 261.65 114.19"/><path class="cls-9" d="M248.56,215.45A19.54,19.54,0,0,1,264.34,209Z" transform="translate(-58.31 -100.86)"/><path class="cls-17" d="M353,182.86s3.77-15.76-23.55-19-34.72,0-34.72,0,40.24-11.5,49.91-5.16,11.1,12.13,11.1,12.13Z" transform="translate(-58.31 -100.86)"/><path class="cls-17" d="M228.25,131.63s46.6-17.25,59.09-12.75C269.93,121.13,229.93,130,228.25,131.63Z" transform="translate(-58.31 -100.86)"/><path class="cls-17" d="M210.68,183.92c30.93-12.88,73.39-23.25,95.25-27.11C276,157.45,194.71,190.57,210.68,183.92Z" transform="translate(-58.31 -100.86)"/><path class="cls-17" d="M269.93,123.38s21.54-4.82,36-1.6C290.82,122.42,271.54,122.74,269.93,123.38Z" transform="translate(-58.31 -100.86)"/><path class="cls-17" d="M212.25,179c5.29-5.46,21.68-31.18,57.68-31.82C248.4,155.2,212.25,179,212.25,179Z" transform="translate(-58.31 -100.86)"/><path class="cls-18" d="M221.89,215.27s6.71,0,3.5-7.57-6.56-12.84-9.46-9.43c0,0-5.89,11.21-3.32,17s5.47,11.5,18.81,16C221,220.66,220.88,217.26,221.89,215.27Z" transform="translate(-58.31 -100.86)"/><path class="cls-15" d="M313.32,337.78,143,339.49s-4.28-4.29-4.28-21,12.31-28.22,18.71-34c4.82-4.38,10-7.17,16.25-9.84a91.11,91.11,0,0,1,22.68-5.83h0l3,1a66,66,0,0,0,11,7.74c21.22,12.35,57.16,23.81,73,26a24.49,24.49,0,0,0,6,.27,2.9,2.9,0,0,0,1.28-.43,26.35,26.35,0,0,1,4.75,3C308.43,316.53,313.32,337.78,313.32,337.78Z" transform="translate(-58.31 -100.86)"/><path class="cls-19" d="M310.61,261.11S307.84,266,293,271l-.38.13c-.95.32-1.95.63-3,1l-.47.13-1.43.42c-.92-.35-1.82-.71-2.71-1.08q-4.37-1.79-8.29-3.75c-10.92-6.11-24.79-17.37-33.43-26-3.66-3.66-8.24-11-12.64-19.08-.85-1.91-1.2-3-1.2-3,11.17,15.84,26.77,30.82,55.61,47.92,7.56,4.48,24.67-5.94,25.55-6.48h0Z" transform="translate(-58.31 -100.86)"/><path class="cls-20" d="M219.82,232l-.07,0c-22.35-16.18-8.07-38.25-6.07-39.85s5.89-3.1,8.5.1c-1.15-1.22-3.09-1.85-6.22.85C209.93,198.21,203.14,215.81,219.82,232Z" transform="translate(-58.31 -100.86)"/><path class="cls-21" d="M277,256.08a62.53,62.53,0,0,0,23.3,2c-4.05,4.19-9.66,5.24-11.65,4.66S279.8,260.61,277,256.08Z" transform="translate(-58.31 -100.86)"/><path class="cls-22" d="M287.33,301.93a8.26,8.26,0,0,0,3.12-.76" transform="translate(-58.31 -100.86)"/><path class="cls-5" d="M231.94,244.72,226,272.21s8.31-20.63,10.48-24.11S231.94,244.72,231.94,244.72Z" transform="translate(-58.31 -100.86)"/><polygon class="cls-23" points="173.04 136.83 166.31 150.88 170.43 150.63 174.13 137.52 173.04 136.83"/><polygon class="cls-23" points="174.77 138.05 170.31 151.01 173.91 152.56 175.94 138.02 174.77 138.05"/><polygon class="cls-23" points="177.88 138.06 174 151.2 177.66 152.6 179.05 137.98 177.88 138.06"/><path class="cls-24" d="M192,271.18s13.82,14.83,42.81,25.71,53,16.33,62.84,11.46c2.63,2.76-33,15-105.65-37.17" transform="translate(-58.31 -100.86)"/><polygon class="cls-11" points="366.1 273.88 65.24 273.88 71.99 221.38 373.81 221.38 366.1 273.88"/><text class="cls-25" transform="translate(96.84 259.32)">C<tspan class="cls-26" x="26.49" y="0">OMIC </tspan><tspan class="cls-27" x="145.47" y="0">Z</tspan><tspan class="cls-28" x="170.55" y="0">ONE</tspan></text><path class="cls-29" d="M297.82,227.36s15.68,8.35,17,8.57a6.49,6.49,0,0,0,2.23,0S301.21,229.93,297.82,227.36Z" transform="translate(-58.31 -100.86)"/></svg>